<svg width="30" height="30" viewBox="0 0 30 30" fill="none" xmlns="http://www.w3.org/2000/svg">
<path d="M13.125 25H16.875C17.0417 25 17.1875 24.9375 17.3125 24.8125C17.4375 24.6875 17.5 24.5417 17.5 24.375C17.5 24.2083 17.4375 24.0625 17.3125 23.9375C17.1875 23.8125 17.0417 23.75 16.875 23.75H13.125C12.9583 23.75 12.8125 23.8125 12.6875 23.9375C12.5625 24.0625 12.5 24.2083 12.5 24.375C12.5 24.5417 12.5625 24.6875 12.6875 24.8125C12.8125 24.9375 12.9583 25 13.125 25ZM8.75 28.75C8.0625 28.75 7.47375 28.505 6.98375 28.015C6.49375 27.525 6.24917 26.9367 6.25 26.25V3.75C6.25 3.0625 6.495 2.47375 6.985 1.98375C7.475 1.49375 8.06334 1.24917 8.75 1.25H21.25C21.9375 1.25 22.5263 1.495 23.0163 1.985C23.5063 2.475 23.7508 3.06334 23.75 3.75V26.25C23.75 26.9375 23.505 27.5263 23.015 28.0163C22.525 28.5063 21.9367 28.7508 21.25 28.75H8.75ZM8.75 20H21.25V7.5H8.75V20Z" fill="black"/>
</svg>
